<svg width="24" height="24" viewBox="0 0 24 24" xmlns="http://www.w3.org/2000/svg">
  <path fill-rule="evenodd" clip-rule="evenodd" d="M5.63604 5.56545L10.6072 10.5358C10.9673 10.1878 11.4585 9.97363 12 9.97363C13.1046 9.97363 14 10.8651 14 11.9648C14 12.5073 13.7821 12.9991 13.4287 13.3582L18.364 18.2934C18.7545 18.6839 18.7545 19.3171 18.364 19.7076C17.9734 20.0981 17.3403 20.0981 16.9497 19.7076L16.0498 18.8086C14.7649 19.5527 13.4151 19.9294 12 19.9294C8.41439 19.9294 5.2486 17.5108 2.49391 12.8263L2.28282 12.4615L2 11.9648L2.28282 11.4681C3.12423 9.99048 4.00457 8.72715 4.92408 7.68258L4.22183 6.97966C3.8313 6.58914 3.8313 5.95597 4.22183 5.56545C4.61235 5.17492 5.24552 5.17492 5.63604 5.56545ZM4.54572 11.5693L4.30532 11.9649L4.51336 12.3082C6.87517 16.1388 9.37415 17.9384 12 17.9384C12.8728 17.9384 13.7313 17.7399 14.575 17.3347L10.7964 13.5553C10.6453 13.4418 10.5108 13.3074 10.3974 13.1564L6.33749 9.09435C5.73183 9.79571 5.13451 10.6195 4.54572 11.5693ZM12 4C15.5856 4 18.7514 6.41863 21.5061 11.1031L21.7172 11.4679L22 11.9646L21.5113 12.8173C20.7425 14.1258 19.9416 15.2576 19.1086 16.2096L17.6965 14.7975C18.3734 14.0081 19.0396 13.0654 19.6948 11.9648C17.2718 7.89826 14.7031 5.99116 12 5.99116C11.1437 5.99116 10.3009 6.18253 9.47198 6.5733L7.99438 5.09542C9.26603 4.36816 10.6011 4 12 4Z"/>
</svg>
